<?xml version="1.0" encoding="UTF-8" standalone="no"?>
<!DOCTYPE svg PUBLIC "-//W3C//DTD SVG 1.1//EN"
 "http://www.w3.org/Graphics/SVG/1.1/DTD/svg11.dtd">
<!-- Generated by graphviz version 2.49.3 (20211023.0002)
 -->
<!-- Pages: 1 -->
<svg width="919pt" height="218pt"
 viewBox="0.00 0.00 918.55 218.00" xmlns="http://www.w3.org/2000/svg" xmlns:xlink="http://www.w3.org/1999/xlink">
<g id="graph0" class="graph" transform="scale(1 1) rotate(0) translate(4 214)">
<polygon fill="white" stroke="transparent" points="-4,4 -4,-214 914.55,-214 914.55,4 -4,4"/>
<!-- products -->
<g id="node1" class="node">
<title>products</title>
<ellipse fill="none" stroke="black" cx="446" cy="-192" rx="42.49" ry="18"/>
<text text-anchor="middle" x="446" y="-188.3" font-family="Times,serif" font-size="14.00">products</text>
</g>
<!-- categories -->
<g id="node2" class="node">
<title>categories</title>
<ellipse fill="none" stroke="black" cx="56" cy="-105" rx="47.5" ry="18"/>
<text text-anchor="middle" x="56" y="-101.3" font-family="Times,serif" font-size="14.00">categories</text>
</g>
<!-- products&#45;&gt;categories -->
<g id="edge1" class="edge">
<title>products&#45;&gt;categories</title>
<path fill="none" stroke="black" d="M407.54,-184.29C345.29,-173.17 218.74,-149.51 113,-123 109.16,-122.04 105.2,-120.98 101.23,-119.89"/>
<polygon fill="black" stroke="black" points="102.02,-116.47 91.44,-117.1 100.1,-123.21 102.02,-116.47"/>
<text text-anchor="middle" x="322" y="-144.8" font-family="Times,serif" font-size="14.00">products&#45;to&#45;categories</text>
</g>
<!-- orders -->
<g id="node3" class="node">
<title>orders</title>
<ellipse fill="none" stroke="black" cx="446" cy="-105" rx="33.29" ry="18"/>
<text text-anchor="middle" x="446" y="-101.3" font-family="Times,serif" font-size="14.00">orders</text>
</g>
<!-- products&#45;&gt;orders -->
<g id="edge2" class="edge">
<title>products&#45;&gt;orders</title>
<path fill="none" stroke="black" d="M446,-173.8C446,-162.16 446,-146.55 446,-133.24"/>
<polygon fill="black" stroke="black" points="449.5,-133.18 446,-123.18 442.5,-133.18 449.5,-133.18"/>
<text text-anchor="middle" x="483" y="-144.8" font-family="Times,serif" font-size="14.00">order_details</text>
</g>
<!-- suppliers -->
<g id="node4" class="node">
<title>suppliers</title>
<ellipse fill="none" stroke="black" cx="867" cy="-105" rx="43.59" ry="18"/>
<text text-anchor="middle" x="867" y="-101.3" font-family="Times,serif" font-size="14.00">suppliers</text>
</g>
<!-- products&#45;&gt;suppliers -->
<g id="edge3" class="edge">
<title>products&#45;&gt;suppliers</title>
<path fill="none" stroke="black" d="M477.05,-179.76C483.58,-177.65 490.47,-175.6 497,-174 635.59,-139.99 675.22,-156.22 814,-123 817.59,-122.14 821.3,-121.16 825,-120.11"/>
<polygon fill="black" stroke="black" points="826.12,-123.43 834.7,-117.21 824.12,-116.72 826.12,-123.43"/>
<text text-anchor="middle" x="776.5" y="-144.8" font-family="Times,serif" font-size="14.00">products&#45;to&#45;suppliers</text>
</g>
<!-- employees -->
<g id="node5" class="node">
<title>employees</title>
<ellipse fill="none" stroke="black" cx="174" cy="-18" rx="49.5" ry="18"/>
<text text-anchor="middle" x="174" y="-14.3" font-family="Times,serif" font-size="14.00">employees</text>
</g>
<!-- orders&#45;&gt;employees -->
<g id="edge4" class="edge">
<title>orders&#45;&gt;employees</title>
<path fill="none" stroke="black" d="M416.73,-96.06C392.33,-89.29 356.72,-79.09 326,-69 307.56,-62.95 303.37,-60.25 285,-54 263.89,-46.81 240.35,-39.32 220.4,-33.12"/>
<polygon fill="black" stroke="black" points="221.22,-29.71 210.63,-30.09 219.15,-36.39 221.22,-29.71"/>
<text text-anchor="middle" x="384" y="-57.8" font-family="Times,serif" font-size="14.00">orders&#45;to&#45;employees</text>
</g>
<!-- shippers -->
<g id="node6" class="node">
<title>shippers</title>
<ellipse fill="none" stroke="black" cx="446" cy="-18" rx="41" ry="18"/>
<text text-anchor="middle" x="446" y="-14.3" font-family="Times,serif" font-size="14.00">shippers</text>
</g>
<!-- orders&#45;&gt;shippers -->
<g id="edge5" class="edge">
<title>orders&#45;&gt;shippers</title>
<path fill="none" stroke="black" d="M446,-86.8C446,-75.16 446,-59.55 446,-46.24"/>
<polygon fill="black" stroke="black" points="449.5,-46.17 446,-36.17 442.5,-46.18 449.5,-46.17"/>
<text text-anchor="middle" x="497" y="-57.8" font-family="Times,serif" font-size="14.00">orders&#45;to&#45;shippers</text>
</g>
<!-- customers -->
<g id="node7" class="node">
<title>customers</title>
<ellipse fill="none" stroke="black" cx="638" cy="-18" rx="47.5" ry="18"/>
<text text-anchor="middle" x="638" y="-14.3" font-family="Times,serif" font-size="14.00">customers</text>
</g>
<!-- orders&#45;&gt;customers -->
<g id="edge6" class="edge">
<title>orders&#45;&gt;customers</title>
<path fill="none" stroke="black" d="M475.97,-96.73C497.14,-90.91 525.77,-81.63 549,-69 558.45,-63.86 558.92,-59.77 568,-54 577.74,-47.81 588.73,-41.87 599.07,-36.7"/>
<polygon fill="black" stroke="black" points="600.87,-39.72 608.32,-32.18 597.8,-33.43 600.87,-39.72"/>
<text text-anchor="middle" x="624" y="-57.8" font-family="Times,serif" font-size="14.00">orders&#45;to&#45;customers</text>
</g>
<!-- employees&#45;&gt;employees -->
<g id="edge7" class="edge">
<title>employees&#45;&gt;employees</title>
<path fill="none" stroke="black" d="M218.72,-25.84C231.52,-25.54 241.39,-22.92 241.39,-18 241.39,-14.54 236.51,-12.22 229.16,-11.04"/>
<polygon fill="black" stroke="black" points="228.98,-7.51 218.72,-10.16 228.39,-14.49 228.98,-7.51"/>
<text text-anchor="middle" x="311.39" y="-14.3" font-family="Times,serif" font-size="14.00">employees&#45;to&#45;employees</text>
</g>
<!-- territories -->
<g id="node8" class="node">
<title>territories</title>
<ellipse fill="none" stroke="black" cx="168" cy="-105" rx="46.29" ry="18"/>
<text text-anchor="middle" x="168" y="-101.3" font-family="Times,serif" font-size="14.00">territories</text>
</g>
<!-- territories&#45;&gt;employees -->
<g id="edge8" class="edge">
<title>territories&#45;&gt;employees</title>
<path fill="none" stroke="black" d="M167.82,-86.85C167.86,-77.19 168.11,-64.9 169,-54 169.21,-51.43 169.48,-48.76 169.79,-46.1"/>
<polygon fill="black" stroke="black" points="173.28,-46.42 171.14,-36.04 166.34,-45.49 173.28,-46.42"/>
<text text-anchor="middle" x="227" y="-57.8" font-family="Times,serif" font-size="14.00">employee_territories</text>
</g>
<!-- region -->
<g id="node9" class="node">
<title>region</title>
<ellipse fill="none" stroke="black" cx="34" cy="-18" rx="34" ry="18"/>
<text text-anchor="middle" x="34" y="-14.3" font-family="Times,serif" font-size="14.00">region</text>
</g>
<!-- territories&#45;&gt;region -->
<g id="edge9" class="edge">
<title>territories&#45;&gt;region</title>
<path fill="none" stroke="black" d="M132.71,-93.26C99.37,-83.11 54.38,-69.35 54,-69 47.28,-62.81 42.77,-54.06 39.77,-45.6"/>
<polygon fill="black" stroke="black" points="43.11,-44.56 36.9,-35.98 36.41,-46.57 43.11,-44.56"/>
<text text-anchor="middle" x="109.5" y="-57.8" font-family="Times,serif" font-size="14.00">territories&#45;to&#45;region</text>
</g>
<!-- us_states -->
<g id="node10" class="node">
<title>us_states</title>
<ellipse fill="none" stroke="black" cx="550" cy="-192" rx="43.59" ry="18"/>
<text text-anchor="middle" x="550" y="-188.3" font-family="Times,serif" font-size="14.00">us_states</text>
</g>
<!-- customer_demographics -->
<g id="node11" class="node">
<title>customer_demographics</title>
<ellipse fill="none" stroke="black" cx="706" cy="-105" rx="99.5" ry="18"/>
<text text-anchor="middle" x="706" y="-101.3" font-family="Times,serif" font-size="14.00">customer_demographics</text>
</g>
<!-- customer_demographics&#45;&gt;customers -->
<g id="edge10" class="edge">
<title>customer_demographics&#45;&gt;customers</title>
<path fill="none" stroke="black" d="M700.8,-86.62C697.18,-76.43 691.63,-63.68 684,-54 680,-48.93 675.11,-44.2 670.03,-39.96"/>
<polygon fill="black" stroke="black" points="672.03,-37.08 661.98,-33.71 667.74,-42.61 672.03,-37.08"/>
<text text-anchor="middle" x="767" y="-57.8" font-family="Times,serif" font-size="14.00">customer_customer_demo</text>
</g>
</g>
</svg>
